#!OML:ASF I:\Actors\actors\Patient Classification 2\Patient 1\Session 1\actor1.ASF
:FULLY-SPECIFIED
:DEGREES
715
root -1.14772 18.4808 6.31594 -6.19606 -1.68936 -5.91095
lowerback 5.8668 0.698728 2.80282
upperback 1.64548 1.12427 1.5328
thorax -1.57099 0.55594 -0.0763818
lowerneck -13.3772 -2.44352 -3.6479
upperneck 18.0376 -2.97274 2.00386
head 7.86312 -1.4709 0.947604
rclavicle -1.13804e-014 -2.98177e-015
rhumerus -51.8959 -17.8746 -67.1388
rradius 44.9512
rwrist -9.18355
rhand -16.169 -36.4381
rfingers 7.12502
rthumb 10.0371 -66.1788
lclavicle -1.13804e-014 -2.98177e-015
lhumerus -44.6134 11.1719 75.8834
lradius 48.6319
lwrist 21.6703
lhand -25.9465 -21.3039
lfingers 7.12502
lthumb 0.597456 8.67496
rfemur 17.2507 3.43091 22.4255
rtibia 4.92986e-014
rfoot -20.0422 -10.4284
rtoes -7.12247
lfemur 3.41925 -7.97618 -8.09254
ltibia 24.2736
lfoot -24.1884 10.9152
ltoes -57.4672
716
root -1.14663 18.4993 6.2764 -5.72716 -1.84542 -6.01995
lowerback 5.64243 0.671051 2.40891
upperback 1.61079 1.06002 1.69297
thorax -1.49348 0.524986 0.315933
lowerneck -13.6885 -2.17198 -3.45885
upperneck 18.7587 -2.83381 2.9218
head 8.16413 -1.29909 1.23419
rclavicle -2.30815e-015 2.08724e-014
rhumerus -51.8808 -18.9057 -69.0124
rradius 42.8607
rwrist -8.5906
rhand -15.8153 -36.5946
rfingers 7.12502
rthumb 10.3784 -66.3184
lclavicle -2.30815e-015 2.08724e-014
lhumerus -44.7243 13.8301 76.5475
lradius 45.3296
lwrist 18.8861
lhand -23.9213 -22.766
lfingers 7.12502
lthumb 2.55332 7.19845
rfemur 16.5647 3.58613 22.549
rtibia 5.40694e-014
rfoot -19.8487 -10.655
rtoes -7.36187
lfemur 2.8978 -8.30486 -8.01217
ltibia 24.1846
lfoot -24.2388 11.2989
ltoes -57.2469
717
root -1.12791 18.4996 6.25816 -6.03946 -2.73596 -6.09979
lowerback 5.36982 0.770313 1.96934
upperback 2.2421 1.14545 2.02371
thorax -0.707273 0.57403 0.905737
lowerneck -14.4768 -1.88576 -3.23375
upperneck 19.4279 -2.60831 3.49816
head 8.52823 -1.10818 1.41311
rclavicle -1.50176e-014 -1.21259e-014
rhumerus -51.116 -18.9701 -71.4746
rradius 41.1345
rwrist -7.93162
rhand -14.8889 -37.271
rfingers 7.12502
rthumb 11.2719 -66.9482
lclavicle -1.50176e-014 -1.21259e-014
lhumerus -44.9813 15.7754 78.1188
lradius 44.7435
lwrist 17.5539
lhand -21.4398 -21.2194
lfingers 7.12502
lthumb 4.94971 8.70275
rfemur 16.7635 4.44772 22.7428
rtibia -2.54444e-014
rfoot -19.8338 -10.9089
rtoes -7.7339
lfemur 3.61943 -9.07911 -8.3921
ltibia 24.0927
lfoot -25.0927 12.486
ltoes -56.7523
718
root -1.11737 18.512 6.22929 -5.64513 -3.17909 -6.1855
lowerback 6.22136 0.902074 2.45701
upperback 1.5547 1.39392 1.72193
thorax -1.8695 0.687519 0.28528
lowerneck -14.6326 -1.83157 -2.62505
upperneck 20.7869 -2.88919 4.22714
head 9.03366 -1.10699 1.53269
rclavicle -2.05579e-015 5.56597e-015
rhumerus -52.3887 -18.7837 -74.2838
rradius 40.2638
rwrist -7.23231
rhand -13.3634 -37.7002
rfingers 7.12502
rthumb 12.7429 -67.2914
lclavicle -2.05579e-015 5.56597e-015
lhumerus -46.3829 15.5301 79.3986
lradius 44.0677
lwrist 16.994
lhand -18.905 -19.3774
lfingers 7.12502
lthumb 7.39686 10.4733
rfemur 16.1907 4.89339 22.8568
rtibia 0
rfoot -19.7802 -11.1226
rtoes -7.51307
lfemur 3.32086 -9.30504 -8.41033
ltibia 24.0116
lfoot -25.4114 13.104
ltoes -56.5115
719
root -1.10671 18.5225 6.20426 -5.14508 -3.63878 -6.25601
lowerback 6.45628 0.978152 2.66808
upperback 1.22326 1.52454 1.58458
thorax -2.33107 0.744709 0.00759714
lowerneck -14.9074 -1.68349 -1.96626
upperneck 21.601 -2.96636 4.59866
head 9.36727 -1.03761 1.54526
rclavicle -2.47959e-014 3.97569e-015
rhumerus -52.9378 -17.5145 -77.8675
rradius 40.0395
rwrist -6.60188
rhand -11.0733 -38.0143
rfingers 7.12502
rthumb 14.9499 -67.4548
lclavicle -2.47959e-014 3.97569e-015
lhumerus -46.735 16.4563 80.527
lradius 41.707
lwrist 14.8111
lhand -15.7668 -19.4625
lfingers 7.12502
lthumb 10.4251 10.259
rfemur 15.5088 5.36867 22.923
rtibia 6.67916e-014
rfoot -19.6238 -11.2874
rtoes -7.52732
lfemur 2.90739 -9.27743 -8.36077
ltibia 23.9296
lfoot -25.5495 13.5685
ltoes -56.4385
720
root -1.09457 18.532 6.1836 -4.57422 -4.07939 -6.20324
lowerback 6.31586 1.02542 2.61711
upperback 1.09881 1.58031 1.51749
thorax -2.37945 0.77139 -0.0360571
lowerneck -15.2705 -1.58042 -1.51905
upperneck 22.0192 -3.03326 4.9167
head 9.58464 -0.985544 1.57409
rclavicle -9.98505e-015 -1.47101e-014
rhumerus -53.1824 -15.1313 -82.1843
rradius 40.4399
rwrist -6.4496
rhand -7.54572 -38.8143
rfingers 7.12502
rthumb 18.3459 -67.9692
lclavicle -9.98505e-015 -1.47101e-014
lhumerus -47.7718 15.5524 82.8763
lradius 42.6674
lwrist 14.4053
lhand -12.3323 -17.7617
lfingers 7.12502
lthumb 13.7368 11.7648
rfemur 14.7559 5.84942 22.8101
rtibia 1.11319e-014
rfoot -19.4752 -11.3859
rtoes -7.79598
lfemur 2.39949 -9.15008 -8.41808
ltibia 23.8778
lfoot -25.6901 13.9106
ltoes -56.3155
721
root -1.07934 18.5398 6.16192 -4.03532 -4.5499 -6.10901
lowerback 6.24535 1.08452 2.54542
upperback 1.01242 1.65258 1.46953
thorax -2.42839 0.806736 -0.0506671
lowerneck -15.7217 -1.5217 -1.34879
upperneck 22.3625 -3.10316 5.27288
head 9.79881 -0.951115 1.66277
rclavicle 1.01939e-014 -3.97569e-015
rhumerus -53.6503 -13.9601 -84.2949
rradius 41.3903
rwrist -4.74992
rhand 1.51329 -39.0017
rfingers 7.12502
rthumb 27.039 -67.086
lclavicle 1.01939e-014 -3.97569e-015
lhumerus -47.9972 14.829 85.2506
lradius 41.9987
lwrist 13.6067
lhand -10.4392 -17.4676
lfingers 7.12502
lthumb 15.5606 11.9264
rfemur 14.0434 6.36367 22.6345
rtibia -1.74931e-014
rfoot -19.3902 -11.4141
rtoes -7.6014
lfemur 1.94038 -9.06646 -8.55928
ltibia 23.8369
lfoot -25.9399 14.2952
ltoes -56.1785
